<?xml version="1.0" encoding="utf-8"?>
<!-- Generated by IcoMoon.io -->
<!DOCTYPE svg PUBLIC "-//W3C//DTD SVG 1.1//EN" "http://www.w3.org/Graphics/SVG/1.1/DTD/svg11.dtd">
<svg version="1.1" xmlns="http://www.w3.org/2000/svg" xmlns:xlink="http://www.w3.org/1999/xlink" width="512" height="512" viewBox="0 0 512 512">
<g>
</g>
	<path d="M203.059 230.287c-18.555 1.475-36.332 3.655-53.084 6.543 0.727 0.43 1.495 0.839 2.222 1.239 15.728-3.369 32.778-6 50.862-7.782z" fill="#000000" />
	<path d="M275.825 228.516c0.522-0.154 1.075-0.246 1.598-0.41-6.963-0.226-14.039-0.369-21.176-0.369-18.432 0-36.219 0.881-53.186 2.55 17.162-1.351 34.918-2.089 53.186-2.089 6.574 0 13.118 0.143 19.579 0.317z" fill="#000000" />
	<path d="M370.217 238.244v2.171c54.282 13.281 90.163 35.748 90.163 61.133 0 40.663-92.037 74.302-204.135 74.302-112.579 0-204.165-33.639-204.165-74.302 0-25.344 35.605-47.769 89.713-61.061v-2.15c-78.715 14.807-132.7 44.329-132.7 78.172 0 48.599 111.196 88.299 247.152 88.299 135.957 0 246.651-39.7 246.651-88.299 0-33.884-53.893-63.468-132.68-78.264z" fill="#000000" />
	<path d="M185.211 246.416h4.229c23.726 0 54.446-10.363 86.385-17.899-6.462-0.185-13.005-0.317-19.579-0.317-18.268 0-36.035 0.738-53.186 2.089-18.084 1.782-35.133 4.413-50.862 7.782 8.571 4.772 17.705 8.345 33.014 8.345z" fill="#000000" />
	<path d="M323.041 188.017c-24.76 0-28.017 18.217-51.385 18.217-12.615 0-9.81-10.742-31.314-10.742h-3.727c-27.095 0-25.692 21.965-47.175 21.965-27.095 0-29.891-27.577-55.624-29.44v123.801h244.367v-123.802h-55.142zM370.217 257.168c-9.318-4.198-17.285-7.024-31.303-7.024-54.661 0-93.44 25.231-145.767 25.231h-19.6c-14.48 0-21.965-2.796-31.764-7.004v-36.434c12.595 7.475 21.934 14.48 43.417 14.48h4.239c37.376 0 92.027-25.702 141.568-25.702h19.62c10.762 0 10.762 1.884 19.599 3.738v32.717z" fill="#000000" />
	<path d="M224.932 107.203c-13.087 0-23.828 7.926-23.828 17.756 0 9.339 10.742 17.285 23.828 17.285s23.818-7.936 23.818-17.285c0-9.831-10.721-17.756-23.818-17.756zM225.393 140.37c-9.339 0-16.825-6.072-16.825-13.547 0-7.465 7.475-13.547 16.825-13.547 9.349 0 16.855 6.093 16.855 13.547 0 7.475-7.506 13.547-16.855 13.547z" fill="#000000" />
	<path d="M320.215 147.353c-12.124-3.707-58.368-16.333-67.728-16.804-1.997 0-6.021-0.85-10.526-1.782-1.178 6.564-8.069 11.602-16.569 11.602-8.847 0-15.975-5.488-16.671-12.452-32.328 3.994-74.905 19.262-74.905 49.357 37.386 0.942 34.12 28.959 59.341 28.959 8.397 0 14.018-21.504 39.26-21.504h12.135c21.033 0 18.698 10.762 31.314 10.762 3.738 0 17.285-18.217 39.219-18.217h63.099c-1.884-22.897-36.925-23.358-57.969-29.922z" fill="#000000" />
</svg>
